<svg class="company__name" width="123" height="32" viewBox="0 0 123 32" fill="none" xmlns="http://www.w3.org/2000/svg">
<path fill-rule="evenodd" clip-rule="evenodd" d="M17.333 1.61707C17.6696 1.50897 18.0356 1.54465 18.3452 1.71578C19.0227 2.09017 19.538 2.74005 19.9215 3.39032C20.3204 4.06678 20.6548 4.87759 20.9148 5.73896C21.4329 7.45439 21.7016 9.5218 21.512 11.4089C21.4404 12.1212 20.8084 12.6403 20.1004 12.5683C19.3923 12.4962 18.8764 11.8604 18.948 11.1481C19.0983 9.653 18.8839 7.93233 18.4492 6.49271C18.3291 6.09532 18.1958 5.73109 18.0551 5.40787C17.6344 6.48935 17.2016 7.68105 17.0085 8.32736C16.8037 9.01304 16.0852 9.40188 15.4037 9.19583C14.7222 8.98978 14.3357 8.26692 14.5405 7.58124C14.916 6.32395 16.0492 3.36025 16.5649 2.28759C16.7188 1.96759 16.9964 1.72518 17.333 1.61707Z" fill="#969FA4"/>
<path fill-rule="evenodd" clip-rule="evenodd" d="M13.2645 7.54621C13.5209 6.7267 14.389 6.27141 15.2036 6.52932C16.0078 6.78395 16.7933 7.12508 17.5572 7.52085L17.5617 7.52327C21.1303 9.38736 23.718 12.5337 24.424 15.7796C24.4346 15.8203 24.4505 15.8548 24.4668 15.8801C24.4823 15.9041 24.4934 15.913 24.4936 15.9132L24.5029 15.9198L27.1351 17.8226L27.1389 17.8254C28.0757 18.507 28.3169 19.6226 28.2714 20.4269C28.2261 21.2291 27.8594 22.3238 26.8261 22.8844L26.8191 22.8881C25.4719 23.61 23.845 23.8338 21.3617 23.391C21.3504 23.3889 21.3391 23.3869 21.3279 23.3846C21.2697 23.3728 21.2085 23.3633 21.1029 23.347L21.0949 23.3457C21.0124 23.333 20.8924 23.3143 20.7652 23.2878C18.8567 22.9834 17.5865 23.0172 16.8015 23.2298C16.1013 23.4194 15.9208 23.6983 15.8367 23.9728C15.2504 25.9217 15.7866 27.0666 16.5145 28.6208C16.6305 28.8686 16.7514 29.1268 16.8734 29.4003C17.2231 30.184 16.875 31.1047 16.096 31.4565C15.3169 31.8083 14.4018 31.4581 14.0521 30.6743C13.9636 30.4757 13.8625 30.2654 13.7555 30.0427C12.9927 28.4555 11.9246 26.2329 12.8779 23.068L12.8793 23.0634C13.338 21.5573 14.4945 20.6326 15.9978 20.2255C17.4127 19.8423 19.2049 19.8853 21.2934 20.2219C21.324 20.2269 21.3544 20.2327 21.3846 20.2395C21.4182 20.247 21.4657 20.2552 21.568 20.2711C21.5755 20.2722 21.5834 20.2735 21.5917 20.2747C21.6745 20.2875 21.7933 20.3059 21.9161 20.3301C23.7376 20.6531 24.6207 20.4816 25.1738 20.2359L22.7025 18.4494C22.0216 17.9629 21.5897 17.2369 21.4132 16.4904C21.4107 16.48 21.4084 16.4696 21.4061 16.4592C20.9398 14.2885 19.0713 11.8183 16.139 10.2857C15.4972 9.95336 14.8769 9.68758 14.2753 9.49715C13.4607 9.23919 13.0082 8.36573 13.2645 7.54621Z" fill="#969FA4"/>
<path fill-rule="evenodd" clip-rule="evenodd" d="M9.61236 4.15293C9.57852 4.61438 9.54268 5.06463 9.50861 5.4853C9.49636 5.63603 9.48452 5.78144 9.47308 5.92122C9.391 6.92765 9.33284 7.64105 9.33284 7.93209C9.33284 8.51499 9.03524 9.18456 8.35828 9.52559C7.601 9.90702 6.55544 10.4943 5.62205 11.1892C5.60929 11.1987 5.59658 11.2082 5.58393 11.2176C5.84633 11.2891 6.0526 11.3641 6.1873 11.4175C6.86954 11.6756 7.17908 12.2934 7.22424 12.7939C7.26574 13.2537 7.11371 13.7467 6.7508 14.1123C6.70249 14.161 6.65104 14.2064 6.59676 14.2481C6.32563 14.457 5.37432 15.2357 4.52904 16.4558C4.09292 17.0852 3.69981 17.8097 3.43553 18.6185C4.68092 18.4089 5.9682 19.6256 5.38268 21.0451C4.89621 22.3253 3.60976 26.168 3.90333 30.1237C3.96692 30.9805 3.32812 31.7269 2.47654 31.7909C1.62496 31.8548 0.88306 31.2121 0.819476 30.3554C0.613724 27.583 1.05843 24.9123 1.56456 22.9091C1.36856 22.8871 1.17614 22.8322 0.99586 22.745C0.46426 22.4879 0.0345809 21.9363 0.0123513 21.2285C-0.124556 18.4913 0.898644 16.2547 1.99214 14.6765C2.06468 14.5718 2.13778 14.4696 2.21116 14.37C1.85005 14.3011 1.52663 14.1205 1.28744 13.8795C0.818372 13.407 0.611036 12.6479 0.923068 11.9277C1.49513 10.5928 2.70625 9.48945 3.78253 8.6882C4.62848 8.05838 5.5245 7.51911 6.2784 7.1082C6.30644 6.69611 6.34699 6.20184 6.38949 5.68354C6.40171 5.53462 6.41408 5.38372 6.42637 5.23222C6.52174 4.05664 6.62399 2.72281 6.66298 1.57192C6.67356 1.18654 6.82155 0.801905 7.1073 0.502957C7.36659 0.231705 7.65348 0.12037 7.80892 0.0733751C7.97276 0.0238662 8.11124 0.0100964 8.18308 0.00492666C8.2546 -0.000222143 8.31628 -2.57415e-05 8.32772 1.0478e-05L8.32916 1.45079e-05C8.49956 1.45079e-05 8.66876 0.028347 8.82996 0.0838667C10.3613 0.611294 11.6664 1.71526 12.7904 2.93924C13.9243 4.17406 14.9924 5.66557 16.0054 7.12058C16.4953 7.82424 16.3255 8.79436 15.626 9.28727C14.9266 9.78017 13.9624 9.6093 13.4725 8.90559C12.4561 7.44564 11.4948 6.11329 10.5189 5.05057C10.207 4.71092 9.90516 4.41193 9.61236 4.15293ZM5.05252 14.3117C5.08317 14.3243 5.1147 14.336 5.14709 14.347C5.11834 14.3373 5.08987 14.3268 5.06173 14.3154C5.05872 14.3142 5.05564 14.313 5.05252 14.3117Z" fill="#969FA4"/>
<path d="M44.0963 11.4341C43.5537 12.0009 42.6496 12.0211 42.0668 11.515C41.7453 11.2114 41.3032 11.009 40.8411 11.009C39.8565 11.009 39.0528 11.8389 39.0528 12.8713V15.8268H41.3032C42.0869 15.8268 42.75 16.4745 42.75 17.2639C42.75 18.0737 42.0869 18.7214 41.3032 18.7214H39.0528V24.774C39.0528 25.5634 38.3897 26.2315 37.586 26.2315C36.8024 26.2315 36.1392 25.5634 36.1392 24.774V24.7335C36.1392 22.8307 36.1392 20.9279 36.1392 19.0453V12.851C36.1392 10.2398 38.2692 8.11426 40.8411 8.11426C42.0266 8.11426 43.1519 8.5596 44.036 9.3693C44.5986 9.9361 44.6187 10.8471 44.0963 11.4341Z" fill="#969FA4"/>
<path d="M49.3803 26.2517C46.1252 26.2517 43.4528 23.5796 43.4528 20.2801C43.4528 17.0008 46.1252 14.3085 49.3803 14.3085C52.6354 14.3085 55.3079 17.0008 55.328 20.3003C55.3079 23.5999 52.6354 26.2517 49.3803 26.2517ZM49.3803 17.2437C47.7125 17.2437 46.3462 18.5999 46.3462 20.3003C46.3462 21.9805 47.6925 23.357 49.3803 23.357C51.0481 23.357 52.4145 22.0007 52.4145 20.3003C52.3943 18.5999 51.0481 17.2437 49.3803 17.2437Z" fill="#969FA4"/>
<path d="M62.4212 26.2315C60.854 26.2315 59.4273 25.6445 58.302 24.5716C57.1768 23.4583 56.5339 21.9806 56.4736 20.3814C56.4535 18.8025 57.0161 17.2842 58.1413 16.1507C59.2264 15.0171 60.6932 14.3693 62.2806 14.3086C63.868 14.2883 65.3548 14.8754 66.4801 15.9887C67.0427 16.515 67.0628 17.4462 66.5203 17.9928C65.9777 18.5596 65.0736 18.5798 64.5109 18.0333C63.9282 17.4665 63.1446 17.1426 62.3208 17.1426C61.4969 17.1426 60.7334 17.507 60.1507 18.094C59.6081 18.681 59.2665 19.4705 59.3068 20.3004C59.3068 21.1102 59.6684 21.9199 60.2512 22.4664C60.8338 23.0535 61.6175 23.3773 62.4212 23.3571C63.2048 23.3571 63.9282 23.0535 64.4908 22.5271C65.0334 21.9805 65.9576 22.021 66.4801 22.6081C67.0226 23.1749 66.9824 24.0858 66.3997 24.6324C65.3348 25.6242 63.9483 26.2113 62.4815 26.2315H62.4212Z" fill="#969FA4"/>
<path d="M73.9746 26.3732C70.9003 26.3732 68.3685 23.6809 68.3685 20.4016V15.847C68.3685 15.0576 68.9512 14.4098 69.6947 14.4098C70.4583 14.4098 71.1816 15.0576 71.1816 15.847V20.4016C71.1816 22.1222 72.6083 23.4987 73.9746 23.4987C75.5821 23.4987 76.7877 22.1222 76.7877 20.4016V16.0494C76.7877 15.2397 77.6115 14.6122 78.2545 14.6122C78.9779 14.6122 79.6007 15.2397 79.6007 16.0494V20.4016C79.6007 23.6809 77.0891 26.3732 73.9746 26.3732Z" fill="#969FA4"/>
<path d="M85.5087 26.353C84.0015 26.353 82.4743 25.7254 81.7111 24.9967C81.1479 24.4704 81.0879 23.5595 81.6303 22.9927C82.1527 22.4056 83.0567 22.3651 83.6199 22.8915C84.0415 23.2963 85.6287 23.8429 86.5335 23.2558C86.7743 23.1142 86.9151 22.851 86.9151 22.5879C86.9151 22.264 86.6335 22.0211 86.3927 21.9198C86.1719 21.7984 85.8095 21.7984 85.3679 21.7984C84.8055 21.7984 84.1623 21.7781 83.4991 21.5352C82.2735 21.1304 81.2687 19.8551 81.1887 18.6C81.0679 17.102 81.7111 16.1709 82.2535 15.6446C83.4391 14.5515 85.1671 14.3895 86.4127 14.592C87.3567 14.7539 88.0607 15.0981 88.6631 15.6446C89.2255 16.1709 89.2863 17.0818 88.7639 17.6486C88.4623 17.9725 87.9999 18.1547 87.5583 18.094C87.3367 18.0737 87.1359 17.9927 86.9351 17.8713C86.6135 17.6284 86.3727 17.4664 85.9503 17.3854C85.2471 17.264 83.9207 17.3045 84.0215 18.3369C84.0415 18.4583 84.2623 18.7619 84.4439 18.8429C84.6847 18.9239 85.0263 18.9239 85.4079 18.9239C86.0311 18.9442 86.7943 18.9442 87.5783 19.3085C88.8839 19.8955 89.7279 21.1911 89.7279 22.5676C89.7279 23.7821 89.1055 24.9157 88.1007 25.6243C87.2967 26.1708 86.4127 26.353 85.5087 26.353Z" fill="#969FA4"/>
<path d="M99.3319 11.4341C98.7895 12.0009 97.8855 12.0211 97.3031 11.515C96.9815 11.2113 96.5391 11.0089 96.0767 11.0089C95.0927 11.0089 94.2887 11.8389 94.2887 12.8712V15.8267H96.5391C97.3231 15.8267 97.9863 16.4744 97.9863 17.264C97.9863 18.0737 97.3231 18.7214 96.5391 18.7214H94.2887V24.7739C94.2887 25.5635 93.6255 26.2314 92.8223 26.2314C92.0383 26.2314 91.3751 25.5635 91.3751 24.7739V24.7335C91.3751 22.8306 91.3751 20.9278 91.3751 19.0453V12.851C91.3751 10.2397 93.5055 8.11426 96.0767 8.11426C97.2623 8.11426 98.3879 8.5596 99.2719 9.3693C99.8343 9.9361 99.8543 10.847 99.3319 11.4341Z" fill="#969FA4"/>
<path d="M104.597 26.2517C101.342 26.2517 98.6703 23.5796 98.6703 20.2801C98.6703 17.0008 101.342 14.3085 104.597 14.3085C107.853 14.3085 110.525 17.0008 110.545 20.3003C110.525 23.5999 107.853 26.2517 104.597 26.2517ZM104.597 17.2437C102.929 17.2437 101.563 18.5999 101.563 20.3003C101.563 21.9805 102.909 23.357 104.597 23.357C106.285 23.357 107.632 22.0007 107.632 20.3003C107.632 18.5999 106.285 17.2437 104.597 17.2437Z" fill="#969FA4"/>
<path d="M122.32 23.8832C122.842 24.4297 122.822 25.3204 122.28 25.867C122.018 26.1301 121.657 26.2516 121.315 26.2516C120.953 26.2516 120.612 26.1099 120.331 25.8265L117.015 22.365L113.76 25.7657C113.499 26.0491 113.137 26.1909 112.776 26.1909C112.454 26.1909 112.093 26.0694 111.811 25.8062C111.269 25.2597 111.249 24.369 111.791 23.8224L115.126 20.3407L111.771 16.8388C111.249 16.272 111.249 15.3813 111.811 14.855C112.353 14.3084 113.237 14.3287 113.78 14.8752L117.035 18.2962L120.371 14.8145C120.893 14.2679 121.757 14.2477 122.34 14.7942C122.882 15.3205 122.903 16.191 122.36 16.778L118.985 20.3205L122.32 23.8832Z" fill="#969FA4"/>
</svg>