<svg width="452" height="422" viewBox="0 0 452 422" fill="none" xmlns="http://www.w3.org/2000/svg">
<g clip-path="url(#clip0_2_670)">
<path d="M452 50.0309H17.3846V422H452V50.0309Z" fill="#DEF2F7"/>
<path d="M380.386 25.8283C379.895 26.9897 382.176 53.251 378.715 95.7335C376.513 122.94 379.639 148.02 379.757 181.722C379.757 206.291 377.456 240.092 377.79 264.267C378.145 302.024 379.422 333.699 380.072 353.739C380.544 368.307 368.508 376.91 351.576 376.634C313.777 376.024 244.492 374.665 182.189 373.229C160.143 372.757 144.174 368.976 125.59 368.563C109.994 368.209 91.0355 371.221 80.0617 370.985L53.0402 370.375C53.0402 370.375 62.8733 71.9724 62.8733 70.9881C63.8561 61.6836 64.0534 52.3126 63.4633 42.9748L64.132 27.5606C64.132 27.5606 62.9323 24.6471 70.7989 24.1353C78.6654 23.6234 160.202 23.6234 160.202 23.6234L380.386 25.8283Z" fill="white"/>
<path d="M279.931 377.973C279.931 377.599 284.061 353.03 284.237 349.861C284.414 346.691 283.195 337.084 289.882 338.226C296.569 339.368 337.691 346.771 337.691 346.771L334.623 382.206C334.623 382.206 321.761 382.559 313.836 382.737C305.911 382.914 289.882 381.93 286.716 381.851C283.55 381.772 278.948 382.206 279.931 377.973Z" fill="#FFEF5F"/>
<path d="M56.5604 252.592C56.5604 252.592 44.8983 274.247 44.8983 274.543C44.8983 274.837 40.0407 372.303 42.0073 371.004C43.974 369.705 52.9418 370.453 52.9418 370.453L56.5604 252.592Z" fill="#D8E9FF"/>
<path d="M56.3245 154.438L60.1005 150.382L64.1321 27.5606C64.1321 27.5606 64.8204 24.1353 70.032 23.9975C75.2436 23.8597 381.173 25.7298 381.173 25.7298L379.56 11.1818C371.694 13.3079 58.9992 9.56754 54.8692 14.9025C51.9979 18.6232 52.2929 26.4385 52.2929 26.4385C52.2929 26.4385 47.809 168.178 48.3597 166.86C48.9103 165.54 54.4366 155.816 56.3245 154.438Z" fill="#D8E9FF"/>
<path d="M12.5275 246.47L25.3696 227.926C25.3696 227.926 36.7171 210.09 38.5854 203.967C40.4537 197.845 43.2856 189.321 44.4853 184.517C45.6849 179.714 48.9299 169.616 48.9299 169.616C48.9299 169.616 55.1248 156.21 56.2851 154.438C57.4454 152.666 61.949 150.501 64.6236 148.394C67.2982 146.287 84.2899 142.33 87.2399 140.874C90.1898 139.417 98.2334 141.011 101.518 140.874C104.802 140.736 110.367 141.976 114.458 140.874C118.549 139.771 126.789 140.046 126.867 143.59C126.819 146.716 126.549 149.834 126.061 152.922C126.061 152.922 119.513 159.044 124.095 161.878C128.677 164.714 132.158 169.162 130.427 170.54C128.731 171.575 126.857 172.283 124.901 172.627C124.901 181.309 124.33 178.849 124.449 189.144C124.132 190.389 123.5 191.531 122.615 192.462C121.73 193.393 120.621 194.081 119.394 194.459C115.323 195.522 116.248 185.345 114.084 186.585C107.87 190.325 106.375 188.357 106.021 190.049C105.667 191.742 103.347 196.093 99.1774 203.279C95.0081 210.464 88.4985 225.17 73.2571 233.516C58.0157 241.864 54.1021 256.51 51.6241 261.293C49.1462 266.078 33.9638 299.229 22.1836 324.152L12.9601 342.538C12.3012 336.11 12.0975 329.643 12.3505 323.187C12.8814 314.741 11.8981 293.441 11.7211 284.208C11.5441 274.975 11.1901 250.565 12.5275 246.47Z" fill="#FFCEB6"/>
<path d="M214.54 250.368L212.278 238.556C212.469 229.357 212.135 220.156 211.275 210.996C211.275 210.996 214.521 197.215 220.518 194.223C220.518 194.223 223.783 188.671 225.908 184.124C228.031 179.576 232.024 177.863 234.285 175.738C236.547 173.612 242.821 167.626 245.082 170.186C246.556 171.858 247.935 173.614 249.212 175.442L252.948 169.536C252.948 169.536 255.308 161.662 259.025 161.662C262.742 161.662 266.243 164.831 266.557 166.899C266.872 168.965 267.914 172.805 266.951 175.935C265.987 179.065 263.844 184.065 270.235 185.778C276.627 187.49 273.972 190.128 274.936 192.214C275.899 194.302 282.547 197.196 282.428 200.542C282.31 203.889 280.816 206.448 282.428 209.322C282.428 209.322 287.129 222.414 285.87 226.351C284.611 230.288 276.371 246.706 275.545 249.974C274.719 253.241 267.482 266.51 266.892 269.364C266.302 272.219 265.811 283.972 265.299 288.165C264.787 292.358 263.883 299.977 264.551 302.949C265.221 305.922 267.581 329.978 268.485 334.782C269.39 339.585 272.988 375.236 272.654 375.827C272.32 376.417 251.965 378.15 244.256 378.918C236.547 379.686 221.404 379.705 216.468 379.626C211.532 379.548 208.325 379.725 209.505 378.366C210.685 377.008 209.997 369.213 210.765 365.335C211.532 361.456 215.072 344.684 215.386 338.896C215.701 333.108 218.394 316.158 219.064 310.134C219.732 304.111 220.244 293.539 220.164 288.756C220.202 283.004 219.488 277.274 218.041 271.707C216.153 264.719 215.13 253.379 214.54 250.368Z" fill="#FFCEB6"/>
<path d="M111.547 295.882C109.738 312.037 107.955 328.193 106.198 344.349C102.358 342.876 98.4141 341.692 94.3985 340.805C90.7195 339.46 86.8482 338.716 82.933 338.601C81.4187 338.285 79.9634 337.655 78.4491 337.281C71.2512 335.47 73.4735 343.187 81.0647 288.224C91.4626 289.716 101.678 292.283 111.547 295.882Z" fill="#DEF2F7"/>
<path d="M335.784 46.0655C350.986 47.7388 351.241 46.2426 351.025 48.0341C348.684 66.8736 349.058 70.3974 347.603 75.2402C345.499 82.2485 342.962 97.9776 340.012 97.8989C311.515 97.269 333.777 98.6667 309.017 96.3437C302.548 95.7334 299.361 96.7374 297.493 96.3437C302.351 84.0793 301.977 84.5321 305.537 68.6454C309.883 49.1365 307.149 59.4717 309.077 45.2386C332.361 45.1008 324.495 44.8449 335.784 46.0655Z" fill="#FFEF5F"/>
<path d="M265.731 46.4788C267.698 46.1835 268.722 46.1442 268.564 47.8372C264.827 88.6661 267.856 61.4206 263.667 90.1622C263.391 91.9734 263.47 92.1308 261.7 92.308C255.8 92.623 235.151 91.5599 222.171 92.8199C224.741 84.0027 226.356 74.9343 226.989 65.7712C226.989 65.7712 228.248 46.0851 229.389 45.9276C233.473 45.6826 237.572 45.7813 241.641 46.2229C244.571 46.341 263.726 46.7938 265.731 46.4788Z" fill="#DEF2F7"/>
<path d="M254.817 119.219C257.354 119.436 259.124 119.003 259.025 121.05C258.243 131.106 256.93 141.114 255.092 151.031C252.261 167.686 252.831 165.245 248.877 172.155C244.688 167.39 245.574 167.824 242.781 167.883C237.943 167.883 235.937 174.537 232.947 172.863C232.082 172.391 217.942 172.096 212.397 170.698C212.397 169.3 213.084 163.611 215.248 150.166C216.959 139.653 217.214 120.282 218.178 119.534C217.274 118.963 216.743 118.943 226.95 119.416C233.349 118.932 239.775 118.866 246.184 119.219C250.53 119.337 246.242 118.412 254.817 119.219Z" fill="#FFEF5F"/>
<path d="M322.6 117.467C337.967 118.715 341.371 117.242 341.164 118.959C339.803 138.429 332.233 157.306 326.085 174.506C325.219 176.959 324.476 179.577 323.486 179.454C316.288 178.493 298.342 174.097 298.3 174.097C297.145 173.851 295.929 173.892 294.772 173.667C289.905 172.645 288.853 171.99 286.13 171.949C278.704 171.949 279.467 171.704 279.24 171.091C283.015 163.093 284.996 160.251 291.142 135.239C296.423 113.827 289.533 117.385 299.91 117.242C299.91 117.242 307.851 116.424 310.429 116.383C311.873 116.362 308.634 116.322 322.6 117.467Z" fill="#006B99"/>
<path d="M344.574 236.863C340.641 297.162 341.447 277.2 339.953 306.158C336.826 307.89 321.977 303.047 316.805 302.359C310.296 301.472 310.492 301.532 310.08 301.335C307.011 299.721 304.907 300.094 294.012 297.634C292.635 297.319 291.475 296.571 290.629 296.492C287.994 296.217 289.134 295.429 289.449 288.952C290 277.554 296.372 231.115 296.411 230.446C298.122 230.78 311.024 232.67 311.77 232.414C314.21 231.824 316.432 232.925 318.772 233.26C343.394 236.824 332.046 234.5 344.574 236.863Z" fill="#FFCCDD"/>
<path d="M215.405 323.58C211.295 355.078 209.505 357.716 208.089 371.752L196.663 369.272C197.018 360.649 200.813 327.931 201.757 320.057L215.405 323.58Z" fill="#006B99"/>
<path d="M175.247 313.305C177.646 313.954 172.355 340.628 169.485 367.855C150.644 362.224 159.652 362.618 147.714 359.98C144.764 359.37 145.295 360.374 139.257 357.735C136.956 356.751 135.324 356.003 135.442 355.039C137.409 341.632 138.51 340.53 138.786 335.903C139.199 329.151 142.463 306.748 142.719 304.622C153.909 308.717 149.464 306.276 175.247 313.305Z" fill="#FFCCDD"/>
<path d="M211.767 244.973C216.172 258.42 211.571 251.824 218.061 282.377C211.925 281.905 206.378 279.838 200.518 278.874C200.518 278.874 207.992 216.35 208.719 216.665C209.447 216.98 210.076 216.488 210.115 217.473C210.685 233.497 208.463 235.13 211.767 244.973Z" fill="#FFEF5F"/>
<path d="M187.971 214.185C185.179 233.399 181.462 252.317 177.725 271.274C174.637 269.719 177.135 274.03 155.226 268.144C151.156 267.062 147.026 265.23 143.27 265.881C141.01 265.944 138.753 265.691 136.564 265.132C143.466 238.93 138.53 257.533 141.814 241.036C144.351 227.984 142.66 230.15 143.486 225.09C144.646 217.905 144.764 222.295 146.101 210.228C155.64 212.432 152.316 211.429 164.056 211.487C169.229 211.567 179.986 214.185 187.971 214.185Z" fill="#DEF2F7"/>
<path d="M118.313 207.353C110.447 248.025 117.447 217.905 107.831 259.601C107.339 261.706 95.677 258.104 78.0166 254.738C76.4433 254.443 76.7776 253.379 76.9153 252.769C83.6215 227.039 81.7729 228.969 82.8152 228.181C93.3564 220.8 97.624 205.897 100.299 206.152C107.988 206.959 114.773 206.704 118.313 207.353Z" fill="#006B99"/>
<path d="M118.175 119.12C118.175 126.818 117.33 129.712 117.073 138.098C117.085 138.201 117.074 138.305 117.042 138.403C117.009 138.501 116.955 138.591 116.883 138.666C116.813 138.741 116.726 138.8 116.629 138.838C116.533 138.875 116.43 138.891 116.327 138.886C113.691 139.083 111.056 139.377 108.46 139.436C99.8855 139.633 98.6268 136.425 88.243 138.709C89.1476 131.897 90.0326 125.282 90.9176 118.51C112.865 118.924 93.9659 119.12 118.175 119.12Z" fill="#FFEF5F"/>
<path d="M188.049 121.719C188.049 154.929 187.892 152.449 185.788 166.997C153.575 165.895 167.125 165.638 151.156 164.831C151.156 163.434 151.353 152.528 152.65 152.095C156.583 150.737 165.02 149.043 167.676 146.642C168.659 145.755 169.209 144.476 167.951 143.492C166.692 142.508 163.604 141.897 153.201 143.492C153.771 136.109 154.342 128.885 154.873 121.837C170.861 120.42 179.908 122.506 188.049 121.719Z" fill="#FFCCDD"/>
<path d="M194.835 46.6757C194.835 55.0423 195.168 48.979 192.868 65.0231C189.091 91.6978 188.935 89.5323 187.499 89.2764C182.13 88.2527 177.803 89.2764 170.605 89.0401C168.638 89.0401 168.638 89.4142 157.272 90.0441C155.109 90.1819 153.869 90.7331 154.184 88.8433C154.951 84.1974 154.872 83.2918 156.937 70.9486C158.452 61.9324 158.904 62.7002 159.239 56.3809C159.592 49.0183 159.613 47.3056 160.575 47.6994C162.699 48.5656 164.508 47.6994 172.258 46.4788C177.017 45.7308 175.07 46.6166 186.752 46.8529C190.232 46.9316 192.868 46.4788 194.835 46.6757Z" fill="#FFCCDD"/>
<path d="M129.798 47.7192C130.427 47.7192 126.297 77.7798 124.213 84.2172C122.698 88.7647 126.554 86.6189 109.915 86.6189C105.321 86.5087 100.724 86.6731 96.1488 87.111C93.6118 87.111 94.5558 87.2685 97.3484 74.2167C97.3484 74.2167 100.593 51.4202 100.593 47.5223C106.061 47.9948 102.678 47.5223 108.165 47.5223C122.502 47.8373 123.643 47.4436 129.798 47.7192Z" fill="#FFEF5F"/>
<path d="M382.117 11.103C382.117 13.2094 385.126 12.855 225.672 13.5047C46.1569 14.2134 57.3471 13.2488 54.9478 17.9931C53.2565 21.3397 53.8465 19.9617 52.6665 60.7906C49.1659 181.703 47.0616 167.213 54.9478 153.827C60.2184 144.929 57.8584 167.942 60.3954 92.0521C61.7524 51.361 62.362 31.3403 62.6373 28.5842C62.9717 24.8832 64.604 22.954 68.2029 22.954C74.1028 22.954 372.146 24.273 380.898 24.7651C384.025 24.9226 382.413 26.8518 381.212 26.9896C380.151 27.9739 69.6976 24.7651 65.784 25.9857C64.781 26.3006 61.5754 148.669 61.5754 148.708C82.4217 139.574 85.588 140.658 85.588 138.709C85.588 133.984 86.414 134.259 87.5546 123.767C88.3413 116.444 87.7709 116.463 90.6029 116.089C100.2 114.848 101.38 116.877 116.582 116.089C118.273 116.089 120.516 115.873 120.516 117.191C121.931 144.496 116.031 136.543 124.901 139.771C126.165 140.349 127.205 141.322 127.868 142.542C128.532 143.764 128.781 145.168 128.579 146.543C128.382 147.646 147.281 144.26 147.4 144.24C150.782 143.689 150.132 146.977 151.628 127.821C152.237 119.77 151.628 119.179 153.082 118.785C153.71 118.554 154.384 118.473 155.049 118.549C157.311 119.042 159.435 118.175 161.618 118.117C164.686 117.998 184.667 118.629 184.706 118.629C193.005 118.629 190.508 114.692 190.764 136.996C191.118 149.398 190.272 154.516 188.404 168.06C188.246 169.084 187.971 169.911 186.673 169.753C186.555 169.753 186.417 169.93 186.279 169.969C182.346 171.013 153.456 168.69 151.766 168.001C148.166 166.406 147.026 171.938 149.406 154.22C149.406 153.847 149.406 153.454 149.406 153.079C140.752 155.048 132.394 157.824 123.426 158.985C128.54 163.867 131.863 165.776 130.368 170.58C130.085 171.58 129.508 172.472 128.711 173.139C127.916 173.805 126.937 174.218 125.904 174.321C126.671 184.045 125.55 178.947 125.904 184.695C126.238 191.014 125.904 195.857 120.004 196.29C115.363 196.644 113.907 193.81 113.337 189.735C113.101 187.924 114.084 187.766 111.764 188.829C104.251 192.215 109.66 189.577 103.13 199.243C102.336 200.633 101.678 202.097 101.164 203.613C111.666 204.538 116.483 202.669 120.477 205.581C121.184 206.094 117.939 226.312 115.264 241.351C112.669 256.038 113.298 248.754 110.466 261.589C109.974 263.794 110.092 264.365 92.4909 260.605C91.5862 260.408 90.7602 259.817 89.8752 259.62C85.47 258.675 78.7441 257.652 74.9681 256.431C71.5462 255.387 74.0242 254.463 79.4324 231.292C79.7274 229.992 78.9211 231.292 76.1481 233.261C67.9669 239.166 65.5283 239.934 61.9687 245.072C56.0688 253.714 58.8024 236.902 55.0461 342.754C54.0432 370.827 55.0461 371.732 52.5682 371.673C50.8572 371.673 50.9162 376.614 54.4365 272.475C55.1641 250.82 56.4031 252.947 49.6182 268.025C44.564 279.227 46.4716 263.459 43.7183 345.53C42.912 370.925 43.4627 370.551 41.85 370.767C39.4901 371.083 40.0407 370.767 40.67 350.334C42.912 277.299 42.9907 282.357 42.5187 282.201C21.7903 325.923 30.3649 310.371 18.6241 334.348C16.6346 337.669 14.8355 341.1 13.2355 344.625C13.0947 344.969 12.8229 345.244 12.4799 345.387C12.1369 345.532 11.7508 345.533 11.4065 345.392C11.0623 345.251 10.7881 344.98 10.6443 344.636C10.5004 344.292 10.4987 343.906 10.6396 343.561C13.9435 335.057 16.6771 332.537 23.344 317.162C31.3285 298.776 25.3106 310.588 40.4734 279.759C49.8346 260.702 53.2762 251.352 57.8388 244.934C60.9657 240.525 64.4073 238.044 71.6052 232.571C87.7906 220.11 86.0206 223.909 99.4724 199.794C100.279 198.357 101.262 197.038 102.029 195.582C107.064 186.112 103.091 190.561 111.627 185.423C112.217 185.069 111.744 182.371 113.356 182.254C113.496 182.231 113.638 182.239 113.774 182.274C113.911 182.309 114.038 182.373 114.149 182.458C114.259 182.545 114.351 182.654 114.418 182.778C114.484 182.902 114.526 183.038 114.536 183.18C114.536 183.691 115.009 184.164 115.126 184.675C115.501 187.19 116.162 189.653 117.093 192.018C117.762 193.199 122.836 193.789 122.993 189.793C123.21 182.274 124.566 186.23 120.023 185.069C111.39 182.884 113.356 177.785 111.96 172.509C109.207 174.616 105.707 174.477 102.914 176.604C104.487 179.97 106.356 183.494 104.743 184.006C103.13 184.517 103.111 182.549 100.987 178.553C99.6691 176.093 95.8145 170.678 97.3878 170.245C98.9611 169.813 99.6887 171.604 101.557 173.927C111.528 170.501 108.185 171.387 111.882 169.006C111.329 167.717 110.448 166.596 109.325 165.757C108.598 165.068 109.876 164.182 110.427 164.34C117.133 166.308 120.26 172.489 126.16 170.718C127.222 170.403 128.677 167.628 127.123 166.269C126.573 165.776 121.44 161.091 121.341 160.835C120.633 158.867 119.591 159.989 112.295 161.426C110.624 161.761 108.912 161.898 107.241 162.194C99.7281 163.533 102.678 166.643 90.4259 174.005C82.048 179.143 82.9527 179.439 80.9467 182.51C78.9408 185.581 78.2131 187.156 79.1374 189.125C83.2477 197.944 83.287 199.459 82.4807 206.291C82.1857 208.85 82.048 210.444 80.5141 210.228C77.9574 209.756 81.9497 203.613 79.6094 197.097C74.1028 221.567 68.3209 216.783 69.9729 213.968C73.2768 208.554 73.3162 209.244 74.8305 203.889C76.3448 198.535 76.3055 199.459 76.3448 190.739C75.8027 189.849 75.516 188.828 75.516 187.786C75.516 186.744 75.8027 185.722 76.3448 184.833C84.3097 169.202 85.6863 177.194 100.574 161.603C105.254 156.701 102.363 151.76 97.9974 151.308C99.9641 154.438 101.4 155.835 98.4891 159.753C96.0898 163.001 89.7769 163.513 89.1673 159.418C89.0689 158.748 89.5606 156.76 90.8979 157.45C92.2352 158.138 91.4092 160.028 93.4939 159.418C97.8008 158.296 98.3318 155.894 96.4438 153.512C94.5558 151.13 94.6345 151.544 91.5665 152.922C75.8335 160.402 73.5718 163.69 70.5432 167.096C59.0384 180.089 56.6391 175.442 49.5002 190.719C49.3429 191.033 49.2446 191.998 47.5336 191.861C46.4913 191.762 48.2416 187.589 48.5759 186.841C54.4758 173.612 65.2333 172.372 57.1701 173.75C54.466 173.996 51.7959 174.53 49.2052 175.344C47.2386 175.915 44.7213 189.813 40.6307 201.369C39.4914 204.658 38.1784 207.885 36.6974 211.035C27.1396 229.54 23.167 233.91 15.7921 243.989C13.8255 246.627 13.4125 248.32 11.8588 247.926C7.35529 246.824 15.3398 243.261 31.9972 213.555C38.3494 202.235 39.2344 194.834 44.1313 179.301C44.9966 176.525 45.9406 175.541 44.6426 175.522C42.971 175.522 41.083 176.269 39.7261 173.553C37.7594 169.458 38.6247 165.521 44.2493 163.71C47.6123 162.666 46.3929 168.197 47.6319 128.078C47.6319 128.078 50.9752 22.4422 51.4275 19.942C52.9812 11.3786 48.3989 10.6699 136.19 10.6699C162.247 10.6699 196.624 9.96122 241.464 10.0793C386.188 10.6305 382.137 8.64226 382.117 11.103ZM185.788 167.096C187.892 152.449 188.049 154.929 188.049 121.818C179.908 122.605 170.861 120.518 154.873 122.073C154.342 129.102 153.771 136.327 153.201 143.728C163.604 142.114 166.633 142.685 167.951 143.728C169.269 144.771 168.659 145.992 167.676 146.878C165.02 149.279 156.682 150.973 152.65 152.331C151.353 152.764 151.156 163.67 151.156 165.068C167.164 165.737 153.575 165.993 185.788 167.096ZM165.001 145.441C165.001 144.595 162.247 145.145 161.067 145.283C150.919 146.406 152.159 146.346 152.001 149.221C161.776 147.252 164.903 146.189 165.001 145.362V145.441ZM124.213 147.901C126.18 147.587 125.964 142.763 122.718 142.252C118.234 141.563 111.547 142.449 106.1 142.37C101.478 142.37 94.5952 140.067 90.8979 141.208C68.1636 148.197 57.4651 150.657 54.3578 161.8C64.5647 158.729 78.8621 158.021 89.4032 151.031C92.1878 149.348 95.3735 148.443 98.6268 148.413C106.847 151.406 99.3938 151.741 124.213 147.901ZM115.461 176.722C115.658 182.805 124.153 183.907 123.604 179.754C123.347 177.943 123.328 176.093 123.21 174.124C119.277 174.281 117.034 171.427 113.967 169.616C114.845 171.888 115.35 174.288 115.461 176.722ZM117.073 138.098C117.33 129.712 118.175 126.818 118.175 119.12C93.9658 119.12 112.865 118.924 90.8782 118.51C89.9932 125.282 89.1082 131.897 88.2036 138.709C98.6071 136.425 99.8461 139.633 108.421 139.436C111.056 139.436 113.691 139.083 116.287 138.886C116.393 138.898 116.501 138.886 116.603 138.851C116.704 138.816 116.795 138.759 116.871 138.682C116.947 138.607 117.005 138.515 117.04 138.414C117.075 138.313 117.087 138.204 117.073 138.098ZM107.831 259.601C117.428 217.886 110.387 248.025 118.313 207.353C114.773 206.626 107.988 206.959 100.397 206.212C97.7221 205.956 93.4545 220.858 82.9134 228.24C81.7727 229.027 83.6213 227.099 77.0135 252.828C76.8758 253.379 76.5415 254.442 78.1148 254.797C95.6768 258.104 107.339 261.706 107.831 259.601Z" fill="#000001"/>
</g>
<defs>
<clipPath id="clip0_2_670">
<rect width="452" height="422" fill="white"/>
</clipPath>
</defs>
</svg>