<svg width="67" height="22" viewBox="0 0 67 22" fill="none" xmlns="http://www.w3.org/2000/svg">
<path d="M65.8113 2.12872V21.0818H63.3074V2.12872H65.8113ZM59.4939 6.90216C59.6708 6.90216 59.8735 6.91085 60.1013 6.9295L60.1082 6.93048H60.116C60.1639 6.93302 60.2094 6.93798 60.2527 6.94122V9.13068C60.2048 9.12408 60.1555 9.11721 60.1052 9.11115H60.1043C59.7705 9.06376 59.4448 9.03986 59.1257 9.03986C58.4126 9.03986 57.7546 9.19563 57.1648 9.51837C56.6558 9.7942 56.2381 10.1682 55.9158 10.6356L55.783 10.8426C55.4418 11.416 55.2771 12.0686 55.2771 12.784V21.0818H52.7732V7.117H55.1707V9.61115H56.1922L56.3025 9.26056C56.5459 8.48724 56.9512 7.91799 57.5095 7.5213V7.52032C58.085 7.10957 58.741 6.90221 59.4939 6.90216ZM48.4431 7.117V21.0818H45.9392V7.117H48.4431ZM31.9226 2.12872V9.65997H32.9314L33.0593 9.3504C33.3716 8.59364 33.8478 8.0076 34.491 7.57794H34.492C35.1248 7.15328 35.9561 6.92169 37.0203 6.92169C37.9808 6.92173 38.7928 7.12388 39.4734 7.50958H39.4744C40.1503 7.89271 40.6767 8.45306 41.0545 9.20782L41.0554 9.21075C41.4369 9.96126 41.6404 10.9024 41.6404 12.0535V21.0818H39.1365V12.5984C39.1364 11.5077 38.8554 10.5885 38.2293 9.91095H38.2283C37.6043 9.22239 36.7425 8.9032 35.7136 8.90314C35.0189 8.90314 34.3791 9.05632 33.8074 9.37384C33.2363 9.68813 32.7885 10.1452 32.4675 10.7313L32.4656 10.7361C32.1472 11.3315 31.9998 12.0307 31.9998 12.8133V21.0818H29.4959V2.12872H31.9226ZM4.02711 2.12872L7.50563 16.409L7.59938 16.7908H8.56227L8.65993 16.4168L12.3757 2.12872H15.117L18.8425 16.4266L18.9392 16.8006H19.8933L19.9861 16.4188L23.4646 2.12872H26.2732L20.9607 21.0818H18.1756L14.3093 7.44513L14.2058 7.08087H13.2957L13.1922 7.44415L9.31813 21.0818H6.532L1.21852 2.12872H4.02711ZM47.2009 1.16388C47.6377 1.16392 47.9902 1.30589 48.2879 1.59064L48.2937 1.59552C48.5942 1.8736 48.7331 2.19343 48.7332 2.58282C48.7332 2.91663 48.6277 3.20472 48.3972 3.46368L48.2908 3.57306C47.9936 3.85237 47.6403 3.99294 47.2009 3.99298C46.8235 3.99298 46.5042 3.8859 46.2254 3.66974L46.1082 3.57013C45.8056 3.28393 45.6677 2.9631 45.6677 2.58282C45.6678 2.19344 45.8077 1.8736 46.1082 1.59552L46.1111 1.59259C46.4174 1.30429 46.7721 1.16388 47.2009 1.16388Z" fill="#2D2D2D" stroke="black"/>
</svg>
